<?xml version="1.0" encoding="iso-8859-1"?>
<!DOCTYPE svg PUBLIC "-//W3C//DTD SVG 1.1 Basic//EN" "http://www.w3.org/Graphics/SVG/1.1/DTD/svg11-basic.dtd">
<svg version="1.1" baseProfile="basic"
   xmlns="http://www.w3.org/2000/svg" xmlns:xlink="http://www.w3.org/1999/xlink" x="0px" y="0px" width="64px" height="64px"
   viewBox="0 0 64 64" xml:space="preserve">
  <path transform="matrix(0.064,0,0,0.064,0,0)" stroke="none" style="fill:#AB664C" d="M 500 0 C 224 0 0 224 0 500 C 0 775 224 1000 500 1000 C 775 1000 1000 775 1000 500 C 1000 224 775 0 500 0 z M 500 979 C 235 979 20 764 20 500 C 20 235 235 20 500 20 C 764 20 979 235 979 500 C 979 764 764 979 500 979 z M 500 59 C 256 59 59 256 59 500 C 59 743 256 940 500 940 C 743 940 940 743 940 500 C 940 256 743 59 500 59 z M 761 515 L 547 515 C 540 535 522 549 500 549 C 472 549 450 527 450 500 C 450 477 464 459 484 452 L 484 301 C 484 293 491 286 500 286 C 508 286 515 293 515 301 L 515 452 C 530 457 542 469 547 484 L 761 484 C 770 484 776 491 776 500 C 776 508 770 515 761 515 z"/>
</svg>