<?xml version="1.0" encoding="iso-8859-1"?>
<!DOCTYPE svg PUBLIC "-//W3C//DTD SVG 1.1 Basic//EN" "http://www.w3.org/Graphics/SVG/1.1/DTD/svg11-basic.dtd">
<svg version="1.1" baseProfile="basic"
   xmlns="http://www.w3.org/2000/svg" xmlns:xlink="http://www.w3.org/1999/xlink" x="0px" y="0px" width="48px" height="48px"
   viewBox="0 0 48 48" xml:space="preserve">
  <path transform="matrix(0.048,0,0,0.048,0,0)" stroke="none" style="fill:#5d939d" d="M 211 0 C 211 0 340 224 335 244 C 329 263 236 340 236 340 C 236 340 250 453 402 581 C 554 710 625 763 672 715 C 719 668 739 642 739 642 L 984 786 L 831 954 C 831 954 779 1000 570 902 C 360 803 202 628 97 458 C 0 298 5 191 73 127 C 133 69 211 0 211 0 z"/>
</svg>