<?xml version="1.0" encoding="iso-8859-1"?>
<!DOCTYPE svg PUBLIC "-//W3C//DTD SVG 1.1 Basic//EN" "http://www.w3.org/Graphics/SVG/1.1/DTD/svg11-basic.dtd">
<svg version="1.1" baseProfile="basic"
   xmlns="http://www.w3.org/2000/svg" xmlns:xlink="http://www.w3.org/1999/xlink" x="0px" y="0px" width="32px" height="32px"
   viewBox="0 0 32 32" xml:space="preserve">
  <path transform="matrix(0.032,0,0,0.032,1,0)" stroke="none" style="fill:#5d939d" d="M 798 728 L 798 759 L 741 759 L 741 728 C 741 715 754 705 770 705 C 785 705 798 715 798 728 z M 925 625 L 925 886 C 925 948 861 1000 783 1000 L 141 1000 C 63 1000 0 948 0 886 L 0 625 C 0 562 63 511 141 511 L 783 511 C 861 511 925 562 925 625 z M 270 582 L 79 582 L 79 628 L 146 628 L 146 910 L 203 910 L 203 628 L 270 628 L 270 582 z M 436 667 L 380 667 L 380 855 C 380 855 364 876 351 876 C 338 876 335 870 335 855 C 335 841 335 667 335 667 L 280 667 C 280 667 280 851 280 873 C 280 895 290 916 320 916 C 350 916 381 888 381 888 L 381 912 L 436 912 L 436 667 z M 647 782 C 647 707 639 664 599 664 C 571 664 550 679 539 688 L 539 582 L 483 582 L 483 910 L 539 910 L 539 889 C 554 903 577 916 597 916 C 655 916 647 858 647 782 z M 850 738 C 850 702 830 664 767 664 C 705 664 685 707 685 752 C 685 798 685 818 685 843 C 685 868 701 916 771 916 C 841 916 850 869 850 848 C 850 827 850 827 850 827 L 795 827 C 795 827 795 836 795 847 C 795 858 790 873 769 873 C 748 873 742 854 742 827 C 742 801 742 796 742 796 L 850 796 C 850 796 850 774 850 738 z M 563 701 C 552 701 542 708 539 716 L 539 858 C 542 867 552 873 563 873 C 577 873 589 864 589 852 L 589 722 C 589 711 577 701 563 701 z M 582 198 L 582 373 C 582 423 530 463 466 463 C 401 463 349 423 349 373 L 349 198 C 349 148 401 108 466 108 C 530 108 582 148 582 198 z M 502 194 C 502 178 486 165 466 165 C 445 165 429 178 429 194 L 429 377 C 429 393 445 406 466 406 C 486 406 502 393 502 377 L 502 194 z M 649 402 C 649 433 665 463 708 463 C 751 463 795 424 795 424 L 795 457 L 874 457 L 874 113 L 794 113 L 794 378 C 794 378 771 407 752 407 C 733 407 729 398 729 378 C 729 358 729 113 729 113 L 649 113 C 649 113 649 372 649 402 z M 50 0 L 154 255 L 154 457 L 199 457 L 245 457 L 245 255 L 349 0 L 261 0 L 199 176 L 138 0 L 50 0 z"/>
</svg>