<?xml version="1.0" encoding="iso-8859-1"?>
<!DOCTYPE svg PUBLIC "-//W3C//DTD SVG 1.1 Basic//EN" "http://www.w3.org/Graphics/SVG/1.1/DTD/svg11-basic.dtd">
<svg version="1.1" baseProfile="basic"
   xmlns="http://www.w3.org/2000/svg" xmlns:xlink="http://www.w3.org/1999/xlink" x="0px" y="0px" width="64px" height="64px"
   viewBox="0 0 64 64" xml:space="preserve">
  <path transform="matrix(0.064,0,0,0.064,0,2)" stroke="none" style="fill:#AB664C" d="M 1000 126 C 1000 197 776 253 500 253 C 223 253 0 197 0 126 C 0 56 223 0 500 0 C 776 0 1000 56 1000 126 M 979 207 C 974 210 968 213 963 216 C 960 217 958 219 955 220 C 944 225 931 230 919 235 C 907 239 895 243 882 246 C 870 250 858 253 846 256 C 834 259 822 261 809 263 C 797 266 785 268 773 270 C 761 272 749 273 737 275 C 724 277 712 278 700 279 C 688 281 676 282 663 283 C 650 284 637 285 625 286 C 613 287 602 287 591 288 C 578 288 566 289 554 289 C 542 289 529 290 518 290 C 512 290 505 290 499 290 C 494 290 487 290 481 290 C 469 290 457 289 445 289 C 433 289 421 288 408 288 C 397 287 386 287 374 286 C 362 285 349 284 335 283 C 323 282 311 281 299 279 C 287 278 274 277 262 275 C 250 273 238 272 226 270 C 214 268 202 266 190 263 C 177 261 165 259 153 256 C 141 253 129 250 117 246 C 104 243 92 239 80 235 C 67 230 55 225 44 220 C 41 219 39 217 36 216 C 31 213 25 210 20 207 C 19 206 18 205 16 205 C 10 201 5 197 0 193 L 0 277 C 0 279 0 281 0 284 C 0 284 1 285 1 285 C 1 287 2 289 2 290 C 3 291 3 291 3 292 C 4 294 5 295 6 297 C 6 297 7 298 7 298 C 8 300 9 302 11 304 C 11 304 12 304 12 305 C 13 307 15 308 17 310 C 17 310 18 311 18 311 C 20 313 22 315 25 317 C 25 317 25 317 25 317 C 28 319 31 321 34 323 C 34 323 34 323 34 323 C 37 325 40 327 44 329 C 44 329 44 329 44 329 C 77 348 127 364 190 376 C 190 376 190 376 190 376 C 202 379 214 381 226 383 C 226 383 226 383 226 383 C 281 392 342 399 408 402 C 408 402 408 402 408 402 C 420 402 433 403 445 403 C 445 403 445 403 445 403 C 463 403 481 404 500 404 C 518 404 536 403 554 403 C 554 403 554 403 554 403 C 566 403 579 402 591 402 C 591 402 591 402 591 402 C 657 399 718 392 773 383 C 773 383 773 383 773 383 C 785 381 798 379 809 376 C 809 376 809 376 809 376 C 872 364 922 348 955 329 C 955 329 955 329 955 329 C 959 327 962 325 965 323 C 965 323 965 323 965 323 C 968 321 971 319 974 317 C 974 317 974 317 974 317 C 977 315 979 313 981 311 C 981 311 982 310 982 310 C 984 308 986 307 987 305 C 988 304 988 304 988 304 C 990 302 991 300 992 298 C 992 298 993 297 993 297 C 994 295 995 294 996 292 C 996 291 996 291 997 290 C 997 289 998 287 998 285 C 998 285 999 284 999 284 C 999 281 1000 279 1000 277 L 1000 193 C 994 197 989 201 982 205 C 981 205 980 206 979 207 z M 80 307 C 62 299 51 291 44 286 L 44 260 C 56 265 68 269 80 273 L 80 307 z M 153 331 C 140 327 128 324 117 320 L 117 284 C 129 287 141 290 153 293 L 153 331 z M 226 346 C 214 344 202 341 190 339 L 190 301 C 202 303 214 305 226 307 L 226 346 z M 299 356 C 287 355 275 353 263 352 L 263 312 C 275 313 287 315 299 316 L 299 356 z M 372 363 C 360 362 348 361 336 360 L 336 319 C 348 320 360 321 372 322 L 372 363 z M 445 366 C 433 366 420 366 408 365 L 408 324 C 422 325 434 325 445 326 L 445 366 z M 518 367 C 512 367 506 367 500 367 C 493 367 487 367 481 367 L 481 326 C 489 326 495 326 500 326 C 504 326 510 326 518 326 L 518 367 z M 591 365 C 579 366 566 366 554 366 L 554 326 C 565 325 577 325 591 324 L 591 365 z M 663 360 C 651 361 639 362 627 363 L 627 322 C 639 321 651 320 663 319 L 663 360 z M 736 352 C 724 353 712 355 700 356 L 700 316 C 712 315 724 313 736 312 L 736 352 z M 809 339 C 797 341 785 344 773 346 L 773 307 C 785 305 797 303 809 301 L 809 339 z M 882 320 C 871 324 859 327 846 331 L 846 293 C 858 290 870 287 882 284 L 882 320 z M 955 286 C 948 291 937 299 919 307 L 919 273 C 931 269 943 265 955 260 L 955 286 z M 975 360 L 974 360 L 972 361 C 936 382 884 399 817 412 L 817 412 L 816 412 C 804 415 792 417 779 419 L 776 420 L 775 420 C 719 429 658 435 592 438 L 591 438 L 591 438 C 579 439 567 439 555 439 L 554 439 C 536 440 518 440 500 440 C 481 440 463 440 445 439 L 444 439 L 444 439 C 432 439 420 439 408 438 L 407 438 L 407 438 C 341 435 279 429 223 420 L 223 420 L 220 419 C 207 417 195 415 183 412 L 182 412 L 182 412 C 115 399 63 382 27 361 L 25 360 L 24 360 C 22 359 20 358 19 356 C 6 367 0 379 0 391 C 0 461 223 518 500 518 C 776 518 1000 461 1000 391 C 1000 379 993 367 981 356 C 979 357 977 359 975 360 z M 979 471 C 974 475 968 478 963 481 C 960 482 958 483 955 484 C 944 490 931 495 919 499 C 907 503 895 507 882 511 C 870 514 858 517 846 520 C 834 523 822 526 809 528 C 797 530 785 532 773 534 C 761 536 749 538 737 540 C 724 541 712 543 700 544 C 688 545 676 546 663 547 C 650 549 637 550 625 550 C 613 551 602 552 591 552 C 578 553 566 553 554 554 C 542 554 530 554 518 554 C 512 554 505 555 499 555 C 494 555 487 554 481 554 C 469 554 457 554 445 554 C 433 553 421 553 408 552 C 397 552 386 551 374 550 C 362 550 349 549 336 547 C 323 546 311 545 299 544 C 287 543 275 541 262 540 C 250 538 238 536 226 534 C 214 532 202 530 190 528 C 177 526 165 523 153 520 C 141 517 129 514 117 511 C 104 507 92 503 80 499 C 68 495 55 490 44 484 C 41 483 39 482 36 481 C 31 478 25 475 20 471 C 19 471 18 470 17 469 C 10 465 5 461 0 457 L 0 541 C 0 544 0 546 0 548 C 0 549 1 549 1 550 C 1 551 2 553 2 555 C 3 555 3 556 3 557 C 4 558 5 560 6 562 C 6 562 7 563 7 563 C 8 565 9 566 11 568 C 11 569 12 569 12 569 C 13 571 15 573 17 575 C 17 575 18 575 18 576 C 20 577 22 579 25 581 C 25 581 25 582 25 582 C 28 584 31 586 34 588 C 34 588 34 588 34 588 C 37 590 40 592 44 594 C 44 594 44 594 44 594 C 77 612 127 628 190 641 C 190 641 190 641 190 641 C 202 643 214 646 226 648 C 226 648 226 648 226 648 C 281 657 342 663 408 666 C 408 666 408 666 408 666 C 420 667 433 667 445 668 C 445 668 445 668 445 668 C 463 668 481 668 500 668 C 518 668 536 668 554 668 C 554 668 554 668 554 668 C 566 667 579 667 591 666 C 591 666 591 666 591 666 C 657 663 718 657 773 648 C 773 648 773 648 773 648 C 785 646 798 643 809 641 C 809 641 809 641 809 641 C 872 628 922 612 955 594 C 955 594 955 594 955 594 C 959 592 962 590 965 588 C 965 588 965 588 965 588 C 968 586 971 584 974 582 C 974 581 974 581 974 581 C 977 579 979 577 981 576 C 981 575 982 575 982 575 C 984 573 986 571 987 569 C 988 569 988 569 988 568 C 990 566 991 565 992 563 C 992 563 993 562 993 562 C 994 560 995 558 996 557 C 996 556 996 555 997 555 C 997 553 998 551 998 550 C 998 549 999 549 999 548 C 999 546 1000 544 1000 541 L 1000 457 C 994 461 989 465 982 469 C 981 470 980 471 979 471 z M 80 571 C 62 563 51 556 44 550 L 44 524 C 56 529 68 534 80 538 L 80 571 z M 153 595 C 140 592 128 588 117 585 L 117 549 C 129 552 141 555 153 558 L 153 595 z M 226 610 C 214 608 202 606 190 604 L 190 565 C 202 567 214 569 226 571 L 226 610 z M 299 621 C 287 619 275 618 263 616 L 263 576 C 275 578 287 579 299 581 L 299 621 z M 372 627 C 360 627 348 626 336 625 L 336 584 C 348 585 360 586 372 587 L 372 627 z M 445 631 C 433 631 420 630 408 630 L 408 589 C 422 589 434 590 445 590 L 445 631 z M 518 632 C 512 632 506 632 500 632 C 493 632 487 632 481 632 L 481 591 C 489 591 495 591 500 591 C 504 591 510 591 518 591 L 518 632 z M 591 630 C 579 630 566 631 554 631 L 554 590 C 565 590 577 589 591 589 L 591 630 z M 663 625 C 651 626 639 627 627 627 L 627 587 C 639 586 651 585 663 584 L 663 625 z M 736 616 C 724 618 712 619 700 621 L 700 581 C 712 579 724 578 736 576 L 736 616 z M 809 604 C 797 606 785 608 773 610 L 773 571 C 785 569 797 567 809 565 L 809 604 z M 882 585 C 871 588 859 592 846 595 L 846 558 C 858 555 870 552 882 549 L 882 585 z M 955 550 C 948 556 937 563 919 571 L 919 538 C 931 534 943 529 955 524 L 955 550 z M 975 624 L 974 625 L 972 626 C 936 646 884 663 817 676 L 817 677 L 816 677 C 804 679 792 681 779 684 L 776 684 L 775 684 C 719 693 658 700 592 703 L 591 703 L 591 703 C 579 703 567 704 555 704 L 554 704 C 536 705 518 705 500 705 C 481 705 463 705 445 704 L 444 704 L 444 704 C 432 704 420 703 408 703 L 407 703 L 407 703 C 341 700 279 693 223 684 L 223 684 L 220 684 C 207 681 195 679 183 677 L 182 677 L 182 677 C 115 663 63 646 27 626 L 25 625 L 24 624 C 22 623 20 622 19 621 C 6 632 0 644 0 656 C 0 726 223 783 500 783 C 776 783 1000 726 1000 656 C 1000 644 993 632 981 621 C 979 622 977 623 975 624 z M 979 736 C 974 739 968 742 963 745 C 960 746 958 748 955 749 C 944 754 931 759 919 764 C 907 768 895 772 882 775 C 870 779 858 782 846 785 C 834 788 822 790 809 793 C 797 795 785 797 773 799 C 761 801 749 803 737 804 C 724 806 712 807 700 808 C 688 810 676 811 663 812 C 650 813 637 814 625 815 C 613 816 602 816 591 817 C 578 817 566 818 554 818 C 542 819 529 819 518 819 C 512 819 505 819 499 819 C 494 819 487 819 481 819 C 469 819 457 819 445 818 C 433 818 421 817 408 817 C 397 816 386 816 374 815 C 362 814 349 813 335 812 C 323 811 311 810 299 808 C 287 807 274 806 262 804 C 250 803 238 801 226 799 C 214 797 202 795 190 793 C 177 790 165 788 153 785 C 141 782 129 779 117 775 C 104 772 92 768 80 764 C 67 759 55 754 44 749 C 41 748 39 746 36 745 C 31 742 25 739 20 736 C 19 735 18 734 16 734 C 10 730 5 726 0 722 L 0 806 C 0 808 0 810 0 813 C 0 813 1 814 1 814 C 1 816 2 818 2 819 C 3 820 3 821 3 821 C 4 823 5 824 6 826 C 6 827 7 827 7 828 C 8 829 9 831 11 833 C 11 833 12 834 12 834 C 13 836 15 838 17 839 C 17 840 18 840 18 840 C 20 842 22 844 25 846 C 25 846 25 846 25 846 C 28 848 31 850 34 852 C 34 852 34 852 34 852 C 37 854 40 856 44 858 C 44 858 44 858 44 858 C 77 877 127 893 190 905 C 190 906 190 906 190 906 C 202 908 214 910 226 912 C 226 912 226 912 226 912 C 281 921 342 928 408 931 C 408 931 408 931 408 931 C 420 931 433 932 445 932 C 445 932 445 932 445 932 C 463 933 481 933 500 933 C 518 933 536 933 554 932 C 554 932 554 932 554 932 C 566 932 579 931 591 931 C 591 931 591 931 591 931 C 657 928 718 921 773 912 C 773 912 773 912 773 912 C 785 910 798 908 809 906 C 809 905 809 905 809 905 C 872 893 922 877 955 858 C 955 858 955 858 955 858 C 959 856 962 854 965 852 C 965 852 965 852 965 852 C 968 850 971 848 974 846 C 974 846 974 846 974 846 C 977 844 979 842 981 840 C 981 840 982 840 982 839 C 984 837 986 836 987 834 C 988 833 988 833 988 833 C 990 831 991 829 992 828 C 992 827 993 827 993 826 C 994 824 995 823 996 821 C 996 821 996 820 997 819 C 997 818 998 816 998 814 C 998 814 999 813 999 813 C 999 810 1000 808 1000 806 L 1000 722 C 994 726 989 730 982 734 C 981 734 980 735 979 736 z M 80 836 C 62 828 51 820 44 815 L 44 789 C 56 794 68 798 80 803 L 80 836 z M 153 860 C 140 856 128 853 117 849 L 117 813 C 129 817 141 820 153 822 L 153 860 z M 226 875 C 214 873 202 871 190 868 L 190 830 C 202 832 214 834 226 836 L 226 875 z M 299 885 C 287 884 275 882 263 881 L 263 841 C 275 842 287 844 299 845 L 299 885 z M 372 892 C 360 891 348 890 336 889 L 336 848 C 348 850 360 850 372 851 L 372 892 z M 445 895 C 433 895 420 895 408 894 L 408 853 C 422 854 434 854 445 855 L 445 895 z M 518 896 C 512 896 506 896 500 896 C 493 896 487 896 481 896 L 481 855 C 489 856 495 856 500 856 C 504 856 510 856 518 855 L 518 896 z M 591 894 C 579 895 566 895 554 895 L 554 855 C 565 854 577 854 591 853 L 591 894 z M 663 889 C 651 890 639 891 627 892 L 627 851 C 639 850 651 850 663 849 L 663 889 z M 736 881 C 724 882 712 884 700 885 L 700 845 C 712 844 724 842 736 841 L 736 881 z M 809 868 C 797 871 785 873 773 875 L 773 836 C 785 834 797 832 809 830 L 809 868 z M 882 849 C 871 853 859 856 846 860 L 846 822 C 858 820 870 817 882 813 L 882 849 z M 955 815 C 948 820 937 828 919 836 L 919 803 C 931 798 943 794 955 789 L 955 815 z"/>
</svg>