<?xml version="1.0" encoding="iso-8859-1"?>
<!DOCTYPE svg PUBLIC "-//W3C//DTD SVG 1.1 Basic//EN" "http://www.w3.org/Graphics/SVG/1.1/DTD/svg11-basic.dtd">
<svg version="1.1" baseProfile="basic"
   xmlns="http://www.w3.org/2000/svg" xmlns:xlink="http://www.w3.org/1999/xlink" x="0px" y="0px" width="64px" height="64px"
   viewBox="0 0 64 64" xml:space="preserve">
  <path transform="matrix(0.064,0,0,0.064,6,0)" stroke="none" style="fill:#AB664C" d="M 424 189 C 438 190 451 194 464 196 C 479 179 493 158 504 136 C 539 69 616 49 616 49 C 616 49 538 0 404 25 C 270 0 193 49 193 49 C 193 49 270 69 304 136 C 316 158 332 179 346 196 C 359 193 371 190 385 189 C 385 189 413 188 424 189 z M 322 228 C 318 228 315 226 313 223 C 311 218 313 212 318 210 C 322 209 404 175 491 210 C 495 212 498 218 496 222 C 494 227 488 229 483 227 C 404 195 326 227 325 227 C 324 228 323 228 322 228 z M 322 250 C 318 250 315 248 313 244 C 311 240 313 234 318 232 C 322 231 404 197 491 232 C 495 234 498 239 496 244 C 494 249 488 251 483 249 C 404 217 326 249 325 249 C 324 250 323 250 322 250 z M 385 523 L 385 593 C 397 595 410 597 424 598 L 424 525 C 416 524 408 522 399 522 C 394 522 390 523 385 523 z M 385 723 C 393 725 401 725 410 725 C 415 725 419 725 423 725 L 423 649 C 412 646 399 645 385 643 L 385 723 L 385 723 z M 336 560 C 336 574 346 582 361 587 L 361 528 C 345 534 336 544 336 560 z M 447 654 L 447 720 C 465 715 477 704 477 685 C 477 669 465 660 447 654 z M 322 273 C 318 273 315 271 313 267 C 311 263 313 257 318 255 C 322 254 404 220 491 255 C 495 257 498 262 496 267 C 494 272 488 274 483 272 C 404 240 326 272 325 272 C 324 273 323 273 322 273 z M 778 873 C 778 873 787 289 405 262 L 405 262 C 405 262 405 262 404 262 C 404 262 404 262 403 262 L 403 262 C 29 288 31 873 31 873 C 0 905 43 945 43 945 C 164 1000 388 994 404 994 C 421 994 644 1000 766 945 C 766 945 809 905 778 873 z M 276 564 C 276 514 312 490 361 482 L 361 429 L 385 429 L 385 480 C 389 480 393 480 397 480 C 404 480 414 480 424 481 L 424 429 L 447 429 L 447 485 C 486 492 525 513 530 567 L 468 567 C 467 555 461 543 447 534 L 447 602 C 495 609 539 625 539 680 C 539 735 495 758 447 765 L 447 819 L 424 819 L 424 768 C 418 768 413 768 408 768 C 400 768 393 768 385 767 L 385 819 L 361 819 L 361 764 C 297 754 270 719 269 672 L 331 672 C 332 693 343 708 361 716 L 361 639 C 317 630 276 615 276 564 z M 751 896 C 650 931 537 942 433 942 C 231 942 61 899 58 898 C 53 897 50 892 51 887 C 53 882 58 879 63 880 C 67 881 452 979 745 878 C 750 876 756 879 757 884 C 759 889 756 894 751 896 z"/>
</svg>