<?xml version="1.0" encoding="iso-8859-1"?>
<!DOCTYPE svg PUBLIC "-//W3C//DTD SVG 1.1 Basic//EN" "http://www.w3.org/Graphics/SVG/1.1/DTD/svg11-basic.dtd">
<svg version="1.1" baseProfile="basic"
   xmlns="http://www.w3.org/2000/svg" xmlns:xlink="http://www.w3.org/1999/xlink" x="0px" y="0px" width="64px" height="64px"
   viewBox="0 0 64 64" xml:space="preserve">
  <path transform="matrix(0.064,0,0,0.064,0,0)" stroke="none" style="fill:#AB664C" d="M 808 223 L 645 393 C 651 404 654 415 654 428 C 654 473 617 509 573 509 C 528 509 492 473 492 428 C 492 422 492 417 493 411 L 367 331 C 353 341 336 347 318 347 C 305 347 293 344 282 339 L 167 449 C 156 459 138 459 127 448 C 116 436 117 419 128 408 L 243 298 C 239 288 237 277 237 266 C 237 221 273 185 318 185 C 363 185 399 221 399 266 C 399 272 398 278 397 283 L 524 364 C 537 353 554 347 573 347 C 584 347 595 350 605 354 L 764 187 L 683 119 L 937 28 L 897 298 L 808 223 z M 945 551 L 971 373 L 804 433 L 853 474 L 722 633 C 714 630 706 629 698 629 C 675 629 655 639 641 655 L 387 566 C 385 525 352 493 311 493 C 269 493 234 527 234 569 C 234 573 235 578 236 582 L 135 643 C 122 651 118 668 126 681 C 134 695 151 699 164 691 L 265 630 C 278 640 293 645 311 645 C 334 645 354 635 368 619 L 622 708 C 624 749 657 782 698 782 C 740 782 775 748 775 705 C 775 692 771 679 765 669 L 896 510 L 945 551 z M 1000 958 C 1000 942 987 930 971 930 L 56 930 L 56 28 C 56 12 43 0 28 0 C 12 0 0 12 0 28 L 0 958 C 0 973 12 986 28 986 L 971 986 C 987 986 1000 973 1000 958 z"/>
</svg>