<?xml version="1.0" encoding="iso-8859-1"?>
<!DOCTYPE svg PUBLIC "-//W3C//DTD SVG 1.1 Basic//EN" "http://www.w3.org/Graphics/SVG/1.1/DTD/svg11-basic.dtd">
<svg version="1.1" baseProfile="basic"
   xmlns="http://www.w3.org/2000/svg" xmlns:xlink="http://www.w3.org/1999/xlink" x="0px" y="0px" width="64px" height="64px"
   viewBox="0 0 64 64" xml:space="preserve">
  <path transform="matrix(0.064,0,0,0.064,0,0)" stroke="none" style="fill:#ff955e" d="M 693 499 C 693 606 606 693 500 693 C 393 693 306 606 306 499 C 306 393 393 306 500 306 C 606 306 693 393 693 499 M 1000 476 L 885 476 C 873 282 717 126 523 114 L 523 0 L 476 0 L 476 114 C 282 126 126 282 114 476 L 0 476 L 0 523 L 114 523 C 126 717 282 873 476 885 L 476 1000 L 523 1000 L 523 885 C 717 873 873 717 885 523 L 1000 523 L 1000 476 z M 523 838 L 523 738 C 515 739 507 739 500 739 C 492 739 484 739 476 738 L 476 838 C 307 827 172 692 161 523 L 261 523 C 260 515 260 507 260 499 C 260 492 260 484 261 476 L 161 476 C 172 307 307 172 476 161 L 476 261 C 484 260 492 260 500 260 C 507 260 515 260 523 261 L 523 161 C 692 172 827 307 838 476 L 738 476 C 739 484 739 492 739 499 C 739 507 739 515 738 523 L 838 523 C 827 692 692 827 523 838 z"/>
</svg>