<?xml version="1.0" encoding="iso-8859-1"?>
<!DOCTYPE svg PUBLIC "-//W3C//DTD SVG 1.1 Basic//EN" "http://www.w3.org/Graphics/SVG/1.1/DTD/svg11-basic.dtd">
<svg version="1.1" baseProfile="basic"
   xmlns="http://www.w3.org/2000/svg" xmlns:xlink="http://www.w3.org/1999/xlink" x="0px" y="0px" width="48px" height="48px"
   viewBox="0 0 48 48" xml:space="preserve">
  <path transform="matrix(0.048,0,0,0.048,0,0)" stroke="none" style="fill:#666666" d="M 500 0 C 224 0 0 224 0 500 C 0 775 224 1000 500 1000 C 775 1000 1000 775 1000 500 C 1000 224 775 0 500 0 z M 500 979 C 235 979 20 764 20 500 C 20 235 235 21 500 21 C 764 21 979 235 979 500 C 979 764 764 979 500 979 z M 331 738 L 669 738 L 669 462 L 331 462 L 331 738 z M 500 556 C 524 556 544 576 544 600 C 544 625 524 644 500 644 C 475 644 456 625 456 600 C 456 576 475 556 500 556 z M 500 277 C 549 277 588 316 588 366 L 588 431 L 620 431 L 620 366 C 620 299 566 245 500 245 C 433 245 379 299 379 366 L 411 366 C 411 316 450 277 500 277 z"/>
</svg>