<?xml version="1.0" encoding="iso-8859-1"?>
<!DOCTYPE svg PUBLIC "-//W3C//DTD SVG 1.1 Basic//EN" "http://www.w3.org/Graphics/SVG/1.1/DTD/svg11-basic.dtd">
<svg version="1.1" baseProfile="basic"
   xmlns="http://www.w3.org/2000/svg" xmlns:xlink="http://www.w3.org/1999/xlink" x="0px" y="0px" width="32px" height="32px"
   viewBox="0 0 32 32" xml:space="preserve">
  <path transform="matrix(0.032,0,0,0.032,2,0)" stroke="none" style="fill:#666666" d="M 740 424 L 740 303 C 740 136 603 0 436 0 C 268 0 132 136 132 303 L 132 424 L 0 424 L 0 1000 L 872 1000 L 872 424 L 740 424 z M 238 303 C 238 194 327 106 436 106 C 545 106 633 194 633 303 L 633 424 L 238 424 L 238 303 z M 478 713 L 478 850 C 478 873 459 892 436 892 C 412 892 394 873 394 850 L 394 713 C 362 698 340 665 340 628 C 340 575 383 532 436 532 C 489 532 532 575 532 628 C 532 666 510 698 478 713 z"/>
</svg>