<?xml version="1.0" encoding="iso-8859-1"?>
<!DOCTYPE svg PUBLIC "-//W3C//DTD SVG 1.1 Basic//EN" "http://www.w3.org/Graphics/SVG/1.1/DTD/svg11-basic.dtd">
<svg version="1.1" baseProfile="basic"
   xmlns="http://www.w3.org/2000/svg" xmlns:xlink="http://www.w3.org/1999/xlink" x="0px" y="0px" width="32px" height="32px"
   viewBox="0 0 32 32" xml:space="preserve">
  <path transform="matrix(0.032,0,0,0.032,3,0)" stroke="none" style="fill:#666666" d="M 725 493 L 686 493 L 686 280 C 686 126 560 0 405 0 L 350 0 C 195 0 69 126 69 280 L 69 493 L 30 493 C 13 493 0 507 0 523 L 0 969 C 0 986 13 1000 30 1000 L 725 1000 C 742 1000 755 986 755 969 L 755 523 C 755 507 742 493 725 493 z M 477 932 L 278 932 L 315 735 C 292 717 278 690 278 658 C 278 604 323 559 377 559 C 432 559 477 604 477 658 C 477 691 461 720 436 738 L 477 932 z M 565 493 L 190 493 L 190 280 C 190 192 262 120 350 120 L 405 120 C 493 120 565 192 565 280 L 565 493 z"/>
</svg>